# xmcd
#
# Track frame offsets: 
#        150
#        15372
#        39445
#        59818
#        83865
#        116057
#        134183
#        153228
#        175322
#        192070
#        214738
#        231448
#        245583
#
# Disc length: 3530 seconds
#
# Revision: 0
# Processed by: cddbd v1.5PL3 Copyright (c) Steve Scherf et al.
# Submitted via: ExactAudioCopy v0.95a5
#
DISCID=b80dc80d
DTITLE=Hack Bartholomew - Lifting Jesus Up, Down in New Orleans
DYEAR=2003
DGENRE=Gospel
TTITLE0=Give Your Life to Jesus
TTITLE1=Angels Keep Watching Over Me
TTITLE2=A Closer Walk With Thee
TTITLE3=Have a Little Talk with Jeses
TTITLE4=Lifting Jesus Up Down in New Orleans
TTITLE5=Down By The Riverside
TTITLE6=All in the Hands of Jesus
TTITLE7=This Little Light of Mine
TTITLE8=Nothing But the Blood of Jesus
TTITLE9=God so Loved the World
TTITLE10=Jesus Christ You Saved My Life
TTITLE11=When the Saints Go Marching In
TTITLE12=Praise Him
EXTD=
EXTT0=
EXTT1=
EXTT2=
EXTT3=
EXTT4=
EXTT5=
EXTT6=
EXTT7=
EXTT8=
EXTT9=
EXTT10=
EXTT11=
EXTT12=
PLAYORDER=
